<?xml version="1.0" encoding="utf-8"?>
<!-- Generator: Adobe Illustrator 16.0.0, SVG Export Plug-In . SVG Version: 6.00 Build 0)  -->
<!DOCTYPE svg PUBLIC "-//W3C//DTD SVG 1.1//EN" "http://www.w3.org/Graphics/SVG/1.1/DTD/svg11.dtd">
<svg version="1.1" id="ad3acef6-40f9-4409-a616-f2253c54cee5"
	 xmlns="http://www.w3.org/2000/svg" xmlns:xlink="http://www.w3.org/1999/xlink" x="0px" y="0px" width="910.226px"
	 height="801.723px" viewBox="0 0 910.226 801.723" enable-background="new 0 0 910.226 801.723" xml:space="preserve">
<title>fingerprint</title>
<path fill="#F2F2F2" d="M771.169,298.167C727.882,127.951,578.31,5.078,402.744,0.15c-92.816-2.605-190.485,28.178-261.595,135.898
	c-127.116,192.563,7.812,325.629,101.88,388.86c45.446,30.61,86.396,67.415,121.663,109.351
	c63.54,75.4,185.778,169.097,331.356,22.29C801.564,550.143,800.003,411.549,771.169,298.167z"/>
<ellipse fill="#3F3D56" cx="455" cy="730.723" rx="455" ry="23"/>
<ellipse fill="#3F3D56" cx="732.181" cy="768.723" rx="178.045" ry="9"/>
<ellipse fill="#3F3D56" cx="396.056" cy="792.723" rx="178.043" ry="9"/>
<path fill="#2F2E41" d="M591.794,228.583"/>
<path fill="#5FD0A5" d="M276.9,323.323c-7.739,0.03-14.037-6.219-14.066-13.958c-0.01-2.471,0.634-4.9,1.867-7.042
	c17.8-30,71.9-100.1,190.1-100.1c51.2,0,96.1,13.6,133.401,40.4c30.699,22,47.898,46.9,56.1,58.9
	c4.346,6.326,2.74,14.978-3.588,19.323c-0.037,0.026-0.074,0.052-0.113,0.077c-6.447,4.321-15.17,2.675-19.6-3.7
	c-14.9-21.6-60.1-87.2-166.2-87.2c-103.6,0-150.4,60.4-165.7,86.3C286.616,320.708,281.939,323.392,276.9,323.323L276.9,323.323z"/>
<path fill="#5FD0A5" d="M514.3,597.723c-1.18,0.016-2.355-0.119-3.5-0.399c-85.7-21.5-117.7-108.101-119-111.7l-0.2-0.8
	c-0.7-2.5-17.9-61.9,8.5-96.7c12.1-15.9,30.5-24,54.8-24c22.6,0,38.9,7.1,50.1,21.8c9.201,12,12.9,26.8,16.5,41.1
	c7.5,29.7,12.9,45.301,44.1,46.9c13.701,0.7,22.701-7.4,27.801-14.3c13.801-18.8,16.199-49.5,5.801-76.5
	c-13.4-35-60.801-100.9-144.401-100.9c-35.7,0-68.5,11.6-94.8,33.4c-21.8,18.1-39.1,43.6-47.4,69.8c-15.4,48.8,4.8,125.5,5,126.2
	c1.963,7.404-2.449,14.999-9.854,16.962c-0.049,0.013-0.098,0.025-0.146,0.038c-7.503,1.98-15.207-2.429-17.3-9.9
	c-0.9-3.5-22.5-85.3-4.7-141.7c19.4-61.1,79.2-122.7,169.2-122.7c41.6,0,80.901,14.3,113.7,41.3c25.4,21,46.201,49.2,57,77.4
	c13.801,36,10.1,76.4-9.4,102.8c-13,17.601-31.5,26.801-52,25.801c-53.398-2.7-62.999-40.4-69.999-67.9
	c-7.2-28.2-11.8-41.8-39.3-41.8c-15.1,0-25.7,4.2-32.3,12.899c-9,11.9-9.7,30.5-8.7,44c0.01,0.142,0.021,0.282,0.031,0.423
	c1.323,17.175,6.523,33.826,15.21,48.701c13.882,23.937,42.041,60.646,88.759,72.376c7.456,1.806,12.037,9.314,10.232,16.771
	c-0.012,0.044-0.021,0.087-0.033,0.13C526.33,593.416,520.714,597.72,514.3,597.723L514.3,597.723z"/>
<path fill="#5FD0A5" d="M404.3,591.323c-3.89,0.002-7.612-1.588-10.3-4.4c-34.3-36.4-53.7-77.1-61-128v-0.3
	c-4.1-33.7,1.9-81.4,31.3-114.2c21.7-24.2,52.2-36.5,90.5-36.5c45.3,0,80.901,21.3,103.1,61.5
	c10.033,18.488,16.607,38.651,19.4,59.5c0.691,7.771-5.045,14.632-12.816,15.324c-7.617,0.679-14.393-4.828-15.283-12.424
	c-2.434-17.433-8.025-34.274-16.5-49.7c-17.201-30.7-43.4-46.3-78-46.3c-29.9,0-53.3,9.1-69.4,27.1c-23.2,25.9-27.7,65.8-24.5,92.2
	c6.4,45,23.5,80.8,53.7,112.8c5.25,5.549,5.007,14.303-0.542,19.553c-0.052,0.05-0.105,0.099-0.158,0.147
	C411.201,589.991,407.816,591.31,404.3,591.323z"/>
<circle fill="#5FD0A5" cx="455" cy="442.723" r="18"/>
</svg>
